<?xml version="1.0" encoding="iso-8859-1"?>
<!-- Generator: Adobe Illustrator 19.0.0, SVG Export Plug-In . SVG Version: 6.00 Build 0)  -->
<svg version="1.1" id="Layer_1" xmlns="http://www.w3.org/2000/svg" xmlns:xlink="http://www.w3.org/1999/xlink" x="0px" y="0px"
	 viewBox="0 0 512 512" style="enable-background:new 0 0 512 512;" xml:space="preserve">
<g>
	<g>
		<circle cx="148.284" cy="310.469" r="8.17"/>
	</g>
</g>
<g>
	<g>
		<circle cx="427.574" cy="170.344" r="8.17"/>
	</g>
</g>
<g>
	<g>
		<circle cx="115.603" cy="277.788" r="8.17"/>
	</g>
</g>
<g>
	<g>
		<path d="M371.614,21.788c-46.409,0-89.57,23.024-115.614,60.89c-26.044-37.866-69.205-60.89-115.613-60.89
			C62.977,21.788,0,84.765,0,162.174c0,43.744,13.421,88.262,39.89,132.315c20.96,34.885,50.122,69.568,86.673,103.087
			c61.984,56.843,122.969,90.25,125.536,91.645c1.217,0.661,2.559,0.991,3.901,0.991s2.684-0.33,3.901-0.991
			c4.417-2.401,109.03-59.853,182.596-152.299c2.81-3.531,2.224-8.67-1.306-11.481c-3.532-2.809-8.67-2.224-11.481,1.305
			c-63.626,79.957-153.968,134.525-173.714,145.911c-14.447-8.313-66.655-39.681-118.39-87.124
			C82.286,334.802,16.34,254.869,16.34,162.174c0-68.399,55.647-124.046,124.047-124.046c45.016,0,86.578,24.529,108.468,64.015
			c1.44,2.597,4.175,4.209,7.146,4.209s5.706-1.611,7.146-4.209c21.888-39.486,63.451-64.015,108.467-64.015
			c68.399,0,124.046,55.647,124.046,124.046c0,45.474-15.71,91.998-46.692,138.278c-2.51,3.75-1.505,8.824,2.244,11.335
			c3.75,2.51,8.824,1.505,11.335-2.244C495.361,260.525,512,210.942,512,162.174C512,84.765,449.023,21.788,371.614,21.788z"/>
	</g>
</g>
<g>
</g>
<g>
</g>
<g>
</g>
<g>
</g>
<g>
</g>
<g>
</g>
<g>
</g>
<g>
</g>
<g>
</g>
<g>
</g>
<g>
</g>
<g>
</g>
<g>
</g>
<g>
</g>
<g>
</g>
</svg>
